# AST/ASF file generated using VICON BodyLanguage
# -----------------------------------------------
:version 1.10
:name VICON
:units
  mass 1.0
  length 0.45
  angle deg
:documentation
   .ast/.asf automatically generated from VICON data using
   VICON BodyBuilder and BodyLanguage model FoxedUp or BRILLIANT.MOD
:root
   order TX TY TZ RX RY RZ
   axis XYZ
   position 0 0 0  
   orientation 0 0 0 
:bonedata
  begin
     id 1 
     name lhipjoint
     direction 0.567149 -0.783011 0.255413 
     length 2.28399 
     axis 0 0 0  XYZ
  end
  begin
     id 2 
     name lfemur
     direction 0.34202 -0.939693 0  
     length 7.34031  
     axis 0 0 20  XYZ
    dof rx ry rz
    limits (-160.0 20.0)
           (-70.0 70.0)
           (-60.0 70.0)
  end
  begin
     id 3 
     name ltibia
     direction 0.34202 -0.939693 0   
     length 6.9833   
     axis 0 0 20   XYZ
    dof rx
    limits (-10.0 170.0)
  end
  begin
     id 4 
     name lfoot
     direction 0.136498 -0.375025 0.91691   
     length 2.33665   
     axis -90 7.62852e-016 20   XYZ
    dof rx rz
    limits (-45.0 90.0)
           (-70.0 20.0)
  end
  begin
     id 5 
     name ltoes
     direction 1.5367e-011 -4.21617e-011 1   
     length 1.15039   
     axis -90 7.62852e-016 20   XYZ
    dof rx
    limits (-90.0 20.0)
  end
  begin
     id 6 
     name rhipjoint
     direction -0.602854 -0.758518 0.247423   
     length 2.35775  
     axis 0 0 0  XYZ 
  end
  begin
     id 7 
     name rfemur
     direction -0.34202 -0.939693 0   
     length 7.43932   
     axis 0 0 -20   XYZ
    dof rx ry rz
    limits (-160.0 20.0)
           (-70.0 70.0)
           (-70.0 60.0)
  end
  begin
     id 8 
     name rtibia
     direction -0.34202 -0.939693 0   
     length 7.11893   
     axis 0 0 -20   XYZ
    dof rx
    limits (-10.0 170.0)
 end
 begin
     id 9 
     name rfoot
     direction -0.131771 -0.362037 0.922803   
     length 2.53019  
     axis -90 -7.62852e-016 -20   XYZ
    dof rx rz
    limits (-45.0 90.0)
           (-20.0 70.0)
  end
  begin
     id 10 
     name rtoes
     direction -1.53733e-011 -4.21932e-011 1   
     length 1.24596   
     axis -90 -7.62852e-016 -20   XYZ
    dof rx
    limits (-90.0 20.0)
  end
  begin
     id 11 
     name lowerback
     direction 0.0235427 0.999023 -0.0374125   
     length 2.21768   
     axis 0 0 0   XYZ
    dof rx ry rz
    limits (-20.0 45.0)
           (-30.0 30.0)
           (-30.0 30.0)
  end
  begin
     id 12 
     name upperback
     direction 0.0302156 0.996818 -0.073759   
     length 2.20352   
     axis 0 0 0   XYZ
    dof rx ry rz
    limits (-20.0 45.0)
           (-30.0 30.0)
           (-30.0 30.0)
  end
  begin
     id 13 
     name thorax
     direction 0.0187169 0.998235 -0.0563532   
     length 2.22103   
     axis 0 0 0   XYZ
    dof rx ry rz
    limits (-20.0 45.0)
           (-30.0 30.0)
           (-30.0 30.0)
  end
  begin
     id 14 
     name lowerneck
     direction -0.119528 0.987423 0.103481   
     length 1.72948   
     axis 0 0 0   XYZ
    dof rx ry rz
    limits (-20.0 45.0)
           (-30.0 30.0)
           (-30.0 30.0)
  end
  begin
     id 15 
     name upperneck
     direction 0.248049 0.963095 -0.104496   
     length 1.74979   
     axis 0 0 0   XYZ
    dof rx ry rz
    limits (-20.0 45.0)
           (-30.0 30.0)
           (-30.0 30.0)
  end
  begin
     id 16
     name head
     direction 0.0903589 0.994284 -0.056876  
     length 1.78268  
     axis 0 0 0   XYZ
    dof rx ry rz
    limits (-20.0 45.0)
           (-30.0 30.0)
           (-30.0 30.0)
  end
  begin
     id 17 
     name lclavicle
     direction 0.946008 0.242039 -0.215608  
     length 3.80783  
     axis 0 0 0   XYZ
    dof ry rz
    limits (-20.0 10.0)
           (0.0 20.0)
  end
  begin
     id 18 
     name lhumerus
     direction 1 -4.48991e-011 -2.25695e-027   
     length 4.83125   
     axis 180 -30 -90   XYZ
    dof rx ry rz
    limits (-60.0 90.0)
           (-90.0 90.0)
           (-90.0 90.0)
  end
  begin
     id 19
     name lradius
     direction 0.999991 0.00366712 -0.00211721   
     length 3.00391   
     axis 180 -30 -90   XYZ
    dof rx
    limits (-10.0 170.0)
  end
  begin
     id 20
     name lwrist
     direction 0.999991 0.00393016 -0.00141978   
     length 1.50195   
     axis -1.00488e-014 90 90   XYZ
    dof ry
    limits (-180.0 0.0)
 end
  begin
     id 21 
     name lhand
     direction 1 -4.49123e-011 2.72098e-026   
     length 1.2717   
     axis -1.73687e-014 90 90   XYZ
    dof rx rz
    limits (-90.0 90.0)
           (-45.0 45.0)
  end
  begin
     id 22 
     name lfingers
     direction 1 -4.48678e-011 5.4479e-026   
     length 1.02528   
     axis -3.47372e-014 90 90   XYZ
    dof rx
    limits (0.0 90.0)
  end
  begin
     id 23
     name lthumb
     direction 0.707107 -6.34851e-011 0.707107   
     length 1.4721   
     axis -90 45 -1.62303e-014   XYZ
    dof rx rz
    limits (-45.0 45.0)
           (-45.0 45.0)
  end
  begin
     id 24 
     name rclavicle
     direction -0.981723 0.189447 -0.0181673   
     length 3.74989  
     axis 0 0 0   XYZ 
    dof ry rz
    limits (-10.0 20.0)
           (-20.0 0.0)
  end
  begin
     id 25 
     name rhumerus
     direction -1 -4.48985e-011 2.38206e-027  
     length 4.61118   
     axis 180 30 90   XYZ
    dof rx ry rz
    limits (-90.0 60.0)
           (-90.0 90.0)
           (-90.0 90.0)
  end
  begin
     id 26 
     name rradius
     direction -1 -4.48977e-011 7.41019e-027   
     length 2.91491   
     axis 180 30 90   XYZ
    dof rx
    limits (-10.0 170.0)
  end
  begin
     id 27 
     name rwrist
     direction -1 -4.48549e-011 1.3624e-026   
     length 1.45745   
     axis -1.00488e-014 -90 -90   XYZ
    dof ry
    limits (-180.0 0.0)
  end
  begin
     id 28
     name rhand
     direction -1 -4.49107e-011 2.72109e-026   
     length 1.30769   
     axis -1.73687e-014 -90 -90   XYZ
    dof rx rz
    limits (-90.0 90.0)
           (-45.0 45.0)
  end
  begin
     id 29
     name rfingers
     direction -1 -4.48919e-011 5.44468e-026   
     length 1.05429   
     axis -3.47372e-014 -90 -90   XYZ
    dof rx
    limits (0.0 90.0)
  end
  begin
     id 30
     name rthumb
     direction -0.707107 -6.35315e-011 0.707107   
     length 1.51376   
     axis -90 -45 1.62303e-014   XYZ
    dof rx rz
    limits (-45.0 45.0)
           (-45.0 45.0)
  end
:hierarchy
  begin
    root lhipjoint rhipjoint lowerback
    lhipjoint lfemur
    lfemur ltibia
    ltibia lfoot
    lfoot ltoes
    rhipjoint rfemur
    rfemur rtibia
    rtibia rfoot
    rfoot rtoes
    lowerback upperback
    upperback thorax
    thorax lowerneck lclavicle rclavicle
    lowerneck upperneck
    upperneck head
    lclavicle lhumerus
    lhumerus lradius
    lradius lwrist
    lwrist lhand lthumb
    lhand lfingers
    rclavicle rhumerus
    rhumerus rradius
    rradius rwrist
    rwrist rhand rthumb
    rhand rfingers
  end

#!OML:ASF X:\für Bonn\!DataBase\2005_08_11_Bastian_Final\c3d\Bastian.ASF
:FULLY-SPECIFIED
:DEGREES
1
root -21.5776 17.5834 -0.538207 143.31 -77.9423 -150.714
lowerback 5.13077 -2.93787 3.59182
upperback 4.73942 -4.0978 3.82338
thorax 2.06165 -2.12388 2.06185
lowerneck -9.71917 0.693194 0.752709
upperneck -3.18987 0.664409 1.84989
head 0.6177 0.277667 0.466385
rclavicle 3.06625e-014 3.4191e-014
rhumerus -49.5288 3.15202 -89.5261
rradius 39.4012
rwrist -22.4461
rhand -11.7155 -4.68161
rfingers 7.12502
rthumb 14.3311 -34.167
lclavicle 3.06625e-014 3.4191e-014
lhumerus -28.3881 10.4125 87.022
lradius 5.37116
lwrist -6.51192
lhand -8.70905 -5.78404
lfingers 7.12502
lthumb 17.2265 23.4724
rfemur 0.675396 3.62396 25.6609
rtibia 27.9316
rfoot -12.276 -10.3594
rtoes -11.8654
lfemur 3.15362 4.42742 -12.6702
ltibia 23.641
lfoot -12.1075 -0.761061
ltoes -13.2779
2
root -21.5757 17.5828 -0.540155 142.815 -78.0521 -150.229
lowerback 5.1216 -2.94653 3.58493
upperback 4.7623 -4.11367 3.84851
thorax 2.09327 -2.13291 2.09085
lowerneck -9.75476 0.680855 0.738733
upperneck -3.22499 0.648711 1.77066
head 0.612694 0.268194 0.443743
rclavicle 2.82274e-014 1.66979e-014
rhumerus -49.3092 3.02204 -89.0614
rradius 39.5462
rwrist -21.2341
rhand -11.241 -4.81684
rfingers 7.12502
rthumb 14.7883 -34.2692
lclavicle 2.82274e-014 1.66979e-014
lhumerus -28.077 10.1267 87.1926
lradius 5.37951
lwrist -6.47262
lhand -8.88206 -5.818
lfingers 7.12502
lthumb 17.06 23.4529
rfemur 0.707762 3.59968 25.7154
rtibia 27.9217
rfoot -12.2734 -10.5009
rtoes -11.8615
lfemur 3.11378 4.40489 -12.6122
ltibia 23.6867
lfoot -12.0865 -0.909259
ltoes -13.1115
3
root -21.5745 17.5828 -0.54276 142.301 -78.1908 -149.739
lowerback 5.11142 -2.96685 3.54981
upperback 4.80141 -4.14754 3.87049
thorax 2.14422 -2.15177 2.13223
lowerneck -9.86106 0.67938 0.722295
upperneck -3.22053 0.645636 1.70078
head 0.632033 0.265723 0.425314
rclavicle -4.30866e-014 8.0309e-014
rhumerus -49.0463 2.95163 -88.595
rradius 39.7006
rwrist -19.9968
rhand -10.7474 -4.9214
rfingers 7.12502
rthumb 15.2638 -34.3382
lclavicle -4.30866e-014 8.0309e-014
lhumerus -27.7427 9.85621 87.358
lradius 5.42646
lwrist -6.35882
lhand -9.07187 -5.90761
lfingers 7.12502
lthumb 16.8773 23.379
rfemur 0.756242 3.57762 25.757
rtibia 27.9057
rfoot -12.2806 -10.6586
rtoes -11.9258
lfemur 3.07433 4.38433 -12.5722
ltibia 23.7403
lfoot -12.0635 -1.047
ltoes -13.1692
4
root -21.5733 17.5816 -0.545828 141.885 -78.3271 -149.345
lowerback 5.10537 -2.96692 3.47793
upperback 4.82716 -4.15402 3.90073
thorax 2.18166 -2.15804 2.20222
lowerneck -9.8996 0.664169 0.675482
upperneck -3.26433 0.62925 1.64328
head 0.624688 0.256306 0.414807
rclavicle -3.28492e-014 -2.62396e-014
rhumerus -48.8169 2.8228 -88.0858
rradius 39.9155
rwrist -18.7151
rhand -10.2768 -4.93314
rfingers 7.12502
rthumb 15.7171 -34.3149
lclavicle -3.28492e-014 -2.62396e-014
lhumerus -27.4326 9.54705 87.5394
lradius 5.51587
lwrist -6.18057
lhand -9.28745 -6.01528
lfingers 7.12502
lthumb 16.6697 23.2889
rfemur 0.808687 3.56826 25.782
rtibia 27.8864
rfoot -12.2798 -10.8113
rtoes -11.9683
lfemur 3.03643 4.41516 -12.5388
ltibia 23.7998
lfoot -12.0407 -1.23967
ltoes -13.167
5
root -21.5714 17.5808 -0.548715 141.319 -78.4334 -148.804
lowerback 5.10105 -2.96564 3.46708
upperback 4.87205 -4.15829 3.9174
thorax 2.23304 -2.16139 2.22387
lowerneck -10.0145 0.652167 0.676621
upperneck -3.26104 0.610147 1.56965
head 0.64523 0.245469 0.391747
rclavicle -4.96962e-014 6.44062e-014
rhumerus -48.5329 2.6898 -87.6193
rradius 40.1616
rwrist -17.3893
rhand -9.85185 -4.8758
rfingers 7.12502
rthumb 16.1263 -34.2249
lclavicle -4.96962e-014 6.44062e-014
lhumerus -27.0901 9.20752 87.6732
lradius 5.6294
lwrist -5.92236
lhand -9.48745 -6.16898
lfingers 7.12502
lthumb 16.4772 23.1513
rfemur 0.86564 3.59456 25.8573
rtibia 27.8719
rfoot -12.294 -11.0043
rtoes -11.9016
lfemur 3.00165 4.37215 -12.4779
ltibia 23.8559
lfoot -12.0235 -1.37371
ltoes -12.9912
6
root -21.5696 17.5804 -0.550838 140.901 -78.5527 -148.409
lowerback 5.09969 -2.95541 3.40992
upperback 4.91414 -4.15156 3.93853
thorax 2.28304 -2.16062 2.27569
lowerneck -10.121 0.639176 0.683546
upperneck -3.27368 0.589343 1.47057
head 0.65936 0.233021 0.359674
rclavicle -6.17723e-014 3.18055e-015
rhumerus -48.2423 2.60941 -87.1564
rradius 40.4912
rwrist -16.1284
rhand -9.47555 -4.8355
rfingers 7.12502
rthumb 16.4886 -34.1549
lclavicle -6.17723e-014 3.18055e-015
lhumerus -26.7613 8.86148 87.821
lradius 5.79379
lwrist -5.60361
lhand -9.70101 -6.36377
lfingers 7.12502
lthumb 16.2716 22.9735
rfemur 0.905805 3.59348 25.8825
rtibia 27.8627
rfoot -12.293 -11.1456
rtoes -11.8761
lfemur 2.96545 4.39144 -12.4496
ltibia 23.9071
lfoot -11.999 -1.53619
ltoes -12.9987
7
root -21.5674 17.5799 -0.552576 140.519 -78.678 -148.05
lowerback 5.1138 -2.94918 3.34379
upperback 4.9448 -4.14793 3.95322
thorax 2.31263 -2.16148 2.32725
lowerneck -10.1982 0.625812 0.67986
upperneck -3.30134 0.569808 1.38312
head 0.663738 0.221235 0.332808
rclavicle -1.24737e-014 -1.98785e-014
rhumerus -47.9345 2.55948 -86.7121
rradius 40.8317
rwrist -14.7997
rhand -9.13877 -4.7181
rfingers 7.12502
rthumb 16.8129 -34.0102
lclavicle -1.24737e-014 -1.98785e-014
lhumerus -26.459 8.51411 87.9415
lradius 5.98983
lwrist -5.24294
lhand -9.8676 -6.5953
lfingers 7.12502
lthumb 16.1111 22.755
rfemur 0.946767 3.5812 25.8904
rtibia 27.856
rfoot -12.3007 -11.2711
rtoes -11.8268
lfemur 2.93171 4.39613 -12.4351
ltibia 23.9527
lfoot -11.958 -1.70087
ltoes -12.8241
